<?xml version="1.0" encoding="iso-8859-1"?>
<!-- Generator: Adobe Illustrator 18.0.0, SVG Export Plug-In . SVG Version: 6.00 Build 0)  -->
<!DOCTYPE svg PUBLIC "-//W3C//DTD SVG 1.1//EN" "http://www.w3.org/Graphics/SVG/1.1/DTD/svg11.dtd">
<svg version="1.1" id="Capa_1" xmlns="http://www.w3.org/2000/svg" xmlns:xlink="http://www.w3.org/1999/xlink" x="0px" y="0px"
	 viewBox="0 0 252.623 252.623" style="enable-background:new 0 0 252.623 252.623;" xml:space="preserve">
<g>
	<path d="M246.623,67.363H6c-3.313,0-6,2.686-6,6V179.26c0,3.314,2.687,6,6,6h240.623c3.313,0,6-2.686,6-6V73.363
		C252.623,70.049,249.937,67.363,246.623,67.363z M12,114.662h80.954v23.299H12V114.662z M133.292,102.662V79.363h66.149v23.299
		H133.292z M104.954,137.961v-23.299h49.775v23.299H104.954z M121.292,102.662H48.476V79.363h72.816V102.662z M177.085,149.961
		v23.299h-103.9v-23.299H177.085z M166.729,137.961v-23.299h73.894v23.299H166.729z M240.623,102.662h-29.182V79.363h29.182V102.662
		z M36.476,79.363v23.299H12V79.363H36.476z M12,149.961h49.185v23.299H12V149.961z M189.085,173.26v-23.299h51.538v23.299H189.085z
		"/>
</g>
<g>
</g>
<g>
</g>
<g>
</g>
<g>
</g>
<g>
</g>
<g>
</g>
<g>
</g>
<g>
</g>
<g>
</g>
<g>
</g>
<g>
</g>
<g>
</g>
<g>
</g>
<g>
</g>
<g>
</g>
</svg>
