<svg xmlns="http://www.w3.org/2000/svg" height="591pt" version="1.1" viewBox="1 -55 591.657 591" width="591pt">
<g id="surface1">
<path d="M 564.84375 128.132812 L 426.957031 128.132812 L 317.820312 19.507812 C 316.214844 7.4375 305.136719 -1.046875 293.066406 0.554688 C 283.195312 1.863281 275.425781 9.632812 274.117188 19.507812 L 164.980469 128.132812 L 27.089844 128.132812 C 12.148438 128.164062 0.03125 140.277344 0 155.222656 L 0 453.554688 C 0.03125 468.5 12.148438 480.609375 27.089844 480.648438 L 564.90625 480.648438 C 579.851562 480.609375 591.960938 468.5 592 453.554688 L 592 155.222656 C 591.960938 140.253906 579.816406 128.132812 564.84375 128.132812 Z M 295.96875 12.796875 C 301.15625 12.796875 305.359375 17 305.359375 22.191406 C 305.359375 27.378906 301.15625 31.582031 295.96875 31.582031 C 290.78125 31.582031 286.574219 27.378906 286.574219 22.191406 C 286.574219 17 290.78125 12.796875 295.96875 12.796875 Z M 277.308594 34.074219 C 283.820312 44.363281 297.4375 47.421875 307.726562 40.914062 C 310.476562 39.167969 312.816406 36.835938 314.5625 34.074219 L 408.875 128.132812 L 183.0625 128.132812 Z M 579.15625 453.554688 C 579.125 461.445312 572.734375 467.835938 564.84375 467.867188 L 27.089844 467.867188 C 19.199219 467.835938 12.808594 461.445312 12.777344 453.554688 L 12.777344 155.222656 C 12.808594 147.332031 19.199219 140.941406 27.089844 140.910156 L 564.90625 140.910156 C 572.800781 140.941406 579.1875 147.332031 579.21875 155.222656 Z M 579.15625 453.554688 " style=" stroke:none;fill-rule:nonzero;fill:rgb(0%,0%,0%);fill-opacity:1;" />
<path d="M 533.152344 166.980469 L 58.785156 166.980469 C 46.433594 166.980469 36.421875 176.992188 36.421875 189.34375 L 36.421875 419.242188 C 36.421875 431.59375 46.433594 441.605469 58.785156 441.605469 L 533.089844 441.605469 C 545.4375 441.605469 555.453125 431.59375 555.453125 419.242188 L 555.453125 189.214844 C 555.378906 176.941406 545.425781 167.019531 533.152344 166.980469 Z M 542.734375 419.371094 C 542.734375 424.660156 538.441406 428.953125 533.152344 428.953125 L 58.785156 428.953125 C 53.492188 428.953125 49.199219 424.660156 49.199219 419.371094 L 49.199219 189.214844 C 49.199219 183.925781 53.492188 179.628906 58.785156 179.628906 L 533.089844 179.628906 C 538.378906 179.628906 542.671875 183.925781 542.671875 189.214844 Z M 542.734375 419.371094 " style=" stroke:none;fill-rule:nonzero;fill:rgb(0%,0%,0%);fill-opacity:1;" />
<path d="M 194.375 347.039062 L 135.140625 347.039062 L 135.140625 311.257812 L 187.917969 311.257812 C 191.078125 311.511719 194.207031 310.554688 196.671875 308.574219 C 198.558594 306.757812 199.582031 304.222656 199.484375 301.609375 C 199.605469 298.996094 198.550781 296.464844 196.609375 294.707031 C 194.128906 292.804688 191.039062 291.871094 187.917969 292.089844 L 135.140625 292.089844 L 135.140625 261.226562 L 192.648438 261.226562 C 195.882812 261.507812 199.101562 260.550781 201.65625 258.542969 C 203.644531 256.683594 204.71875 254.042969 204.597656 251.324219 C 204.699219 248.644531 203.625 246.050781 201.65625 244.230469 C 199.101562 242.226562 195.882812 241.265625 192.648438 241.546875 L 125.238281 241.546875 C 122.195312 241.445312 119.167969 241.988281 116.355469 243.144531 C 114.089844 244.140625 112.273438 245.9375 111.246094 248.191406 C 110.050781 251.015625 109.480469 254.070312 109.582031 257.136719 L 109.582031 351.578125 C 109.199219 355.863281 110.511719 360.125 113.226562 363.460938 C 116.554688 366.234375 120.855469 367.570312 125.175781 367.167969 L 194.375 367.167969 C 197.621094 367.429688 200.839844 366.453125 203.382812 364.417969 C 205.449219 362.597656 206.597656 359.953125 206.515625 357.199219 C 206.636719 354.402344 205.511719 351.683594 203.449219 349.789062 C 200.882812 347.742188 197.636719 346.757812 194.375 347.039062 Z M 194.375 347.039062 " style=" stroke:none;fill-rule:nonzero;fill:rgb(0%,0%,0%);fill-opacity:1;" />
<path d="M 308.746094 342.566406 L 282.101562 301.546875 L 306.894531 264.550781 C 310.402344 260.03125 312.613281 254.636719 313.285156 248.957031 C 313.285156 246.34375 312.171875 243.859375 310.21875 242.121094 C 306.675781 239.085938 301.726562 238.320312 297.4375 240.140625 C 296.050781 240.773438 294.8125 241.6875 293.796875 242.824219 C 292.542969 244.242188 291.414062 245.757812 290.410156 247.359375 L 286.191406 253.75 L 266.0625 284.292969 L 246.894531 253.75 C 244.53125 249.628906 241.796875 245.738281 238.714844 242.121094 C 236.535156 239.953125 233.539062 238.8125 230.472656 238.988281 C 227.585938 238.914062 224.773438 239.941406 222.613281 241.867188 C 220.664062 243.425781 219.496094 245.757812 219.417969 248.253906 C 219.457031 250.792969 220.019531 253.296875 221.078125 255.605469 C 222.515625 258.765625 224.183594 261.820312 226.0625 264.742188 L 249.707031 301.289062 L 222.101562 342.566406 C 218.511719 346.988281 216.289062 352.363281 215.710938 358.03125 C 215.207031 363.621094 219.335938 368.554688 224.921875 369.058594 C 225.40625 369.101562 225.890625 369.109375 226.382812 369.085938 C 228.324219 369.171875 230.261719 368.847656 232.070312 368.125 C 233.492188 367.527344 234.796875 366.65625 235.902344 365.570312 C 236.925781 364.554688 237.84375 363.441406 238.652344 362.246094 C 239.417969 361.097656 240.695312 359.117188 242.546875 356.242188 L 265.996094 320.460938 L 287.851562 355.347656 L 293.601562 363.972656 C 294.667969 365.472656 296.042969 366.738281 297.625 367.679688 C 299.566406 368.769531 301.792969 369.28125 304.015625 369.148438 C 306.113281 369.175781 308.175781 368.667969 310.023438 367.679688 C 311.714844 366.777344 313.128906 365.429688 314.113281 363.78125 C 315.089844 362.113281 315.59375 360.214844 315.582031 358.285156 C 315.472656 356.0625 314.910156 353.890625 313.921875 351.894531 C 312.445312 348.65625 310.714844 345.539062 308.746094 342.566406 Z M 308.746094 342.566406 " style=" stroke:none;fill-rule:nonzero;fill:rgb(0%,0%,0%);fill-opacity:1;" />
<path d="M 346.316406 239.4375 C 342.878906 239.328125 339.5625 240.730469 337.246094 243.273438 C 334.667969 246.550781 333.417969 250.679688 333.730469 254.839844 L 333.730469 353.8125 C 333.421875 358 334.703125 362.152344 337.308594 365.441406 C 339.597656 367.996094 342.886719 369.421875 346.316406 369.339844 C 349.820312 369.472656 353.199219 368.074219 355.582031 365.503906 C 358.203125 362.222656 359.480469 358.066406 359.160156 353.875 L 359.160156 254.835938 C 359.492188 250.644531 358.214844 246.488281 355.582031 243.207031 C 353.1875 240.671875 349.808594 239.296875 346.316406 239.4375 Z M 346.316406 239.4375 " style=" stroke:none;fill-rule:nonzero;fill:rgb(0%,0%,0%);fill-opacity:1;" />
<path d="M 469.191406 241.546875 L 388.234375 241.546875 C 384.804688 241.292969 381.398438 242.289062 378.648438 244.359375 C 376.425781 246.292969 375.207031 249.144531 375.328125 252.089844 C 375.238281 254.972656 376.402344 257.746094 378.523438 259.691406 C 381.273438 261.808594 384.707031 262.835938 388.171875 262.570312 L 415.902344 262.570312 L 415.902344 353.8125 C 415.582031 358.003906 416.859375 362.15625 419.480469 365.441406 C 421.863281 368.007812 425.242188 369.410156 428.746094 369.277344 C 432.175781 369.394531 435.484375 368.015625 437.816406 365.503906 C 440.425781 362.1875 441.683594 358.015625 441.332031 353.8125 L 441.332031 262.632812 L 469.0625 262.632812 C 472.640625 262.855469 476.167969 261.738281 478.964844 259.503906 C 481.125 257.570312 482.316406 254.792969 482.226562 251.898438 C 482.316406 249.015625 481.152344 246.242188 479.03125 244.296875 C 476.207031 242.191406 472.699219 241.207031 469.191406 241.546875 Z M 469.191406 241.546875 " style=" stroke:none;fill-rule:nonzero;fill:rgb(0%,0%,0%);fill-opacity:1;" />
</g>
</svg>